<?xml version="1.0" encoding="UTF-8"?>
<svg width="93px" height="93px" viewBox="0 0 93 93" version="1.1" xmlns="http://www.w3.org/2000/svg" xmlns:xlink="http://www.w3.org/1999/xlink">
    <!-- Generator: Sketch 60.1 (88133) - https://sketch.com -->
    <title>git</title>
    <desc>Created with Sketch.</desc>
    <g id="Page-1" stroke="none" stroke-width="1" fill="none" fill-rule="evenodd">
        <g id="Desktop-HD" transform="translate(-413.000000, -770.000000)" fill="#474747">
            <path d="M466.571068,773.366486 L502.633514,809.428932 C506.538757,813.334175 506.538757,819.665825 502.633514,823.571068 L466.571068,859.633514 C462.665825,863.538757 456.334175,863.538757 452.428932,859.633514 L416.366486,823.571068 C412.461243,819.665825 412.461243,813.334175 416.366486,809.428932 L440.203554,785.590554 L450.654098,796.04147 C450.281043,796.840288 450.054379,797.721188 450.008614,798.64966 L450,799 C450,801.985281 451.868737,804.534095 454.500226,805.540458 L454.500226,805.540458 L454.500226,832.459542 C451.868737,833.465905 450,836.014719 450,839 C450,842.865993 453.134007,846 457,846 C460.865993,846 464,842.865993 464,839 C464,836.014719 462.131263,833.465905 459.499774,832.459542 L459.499774,832.459542 L459.499774,805.540458 C459.655438,805.480927 459.808433,805.415999 459.95853,805.345902 L459.95853,805.345902 L470.654098,816.04147 C470.234411,816.94014 470,817.942695 470,819 C470,822.865993 473.134007,826 477,826 C480.865993,826 484,822.865993 484,819 C484,815.134007 480.865993,812 477,812 C476.415714,812 475.848149,812.071586 475.305595,812.206466 L475.305595,812.206466 L463.793471,800.694661 C463.928391,800.15203 464,799.584378 464,799 C464,795.134007 460.865993,792 457,792 C456.415355,792 455.84745,792.071674 455.304593,792.206715 L455.304593,792.206715 L444.446554,781.348554 L452.428932,773.366486 C456.334175,769.461243 462.665825,769.461243 466.571068,773.366486 Z" id="git"></path>
        </g>
    </g>
</svg>