<?xml version="1.0" encoding="UTF-8"?>
<svg width="75px" height="67px" viewBox="0 0 75 67" version="1.1" xmlns="http://www.w3.org/2000/svg" xmlns:xlink="http://www.w3.org/1999/xlink">
    <!-- Generator: Sketch 60.1 (88133) - https://sketch.com -->
    <title>Group</title>
    <desc>Created with Sketch.</desc>
    <g id="Page-1" stroke="none" stroke-width="1" fill="none" fill-rule="evenodd">
        <g id="Desktop-HD" transform="translate(-990.000000, -170.000000)" fill="#D14B4B">
            <g id="Group" transform="translate(989.514109, 169.498727)">
                <circle id="Oval" cx="17.646869" cy="26.2267147" r="8.56338028"></circle>
                <circle id="Oval" cx="41.731376" cy="10.7055879" r="5.88732394"></circle>
                <path d="M58.2705394,1.80265222 C58.7275113,0.738287368 59.9533499,0.249123815 61.0085266,0.710074848 C70.7216248,4.95321489 76.0253657,14.7658152 75.3999892,26.3112997 C74.766097,38.0139988 68.1955285,49.8735871 56.9420293,58.435482 C45.6838932,67.0009047 31.8184623,69.0251839 19.9048544,64.7020278 C8.24437362,60.4707253 0.520108395,50.828235 0.520108395,39.441318 C0.520108395,38.2814265 1.45226933,37.3411486 2.60214812,37.3411486 C3.7520269,37.3411486 4.68418784,38.2814265 4.68418784,39.441318 C4.68418784,48.933965 11.2129719,57.0840913 21.3144175,60.7496581 C31.9155482,64.5965484 44.306756,62.787498 54.4345422,55.0820689 C64.7317213,47.2477621 70.6768944,36.5169851 71.2421115,26.0821434 C71.7769204,16.2086855 67.3778314,8.06980702 59.3536851,4.56448095 C58.2985084,4.10352992 57.8135675,2.86701708 58.2705394,1.80265222 Z" id="Path-3" fill-rule="nonzero"></path>
            </g>
        </g>
    </g>
</svg>